<svg xmlns="http://www.w3.org/2000/svg" width="724" height="725" viewBox="0 0 724 725">
  <g id="square" transform="translate(-16487 3335)">
    <rect id="Retângulo_3" data-name="Retângulo 3" width="724" height="725" rx="40" transform="translate(16487 -3335)" fill="#06092b"/>
    <path id="Interseção_4" data-name="Interseção 4" d="M410.744,380.66a17.387,17.387,0,0,1-6.523-2.033,3.819,3.819,0,0,1-2.033-3.473,13.385,13.385,0,0,1,1.44-5L561.879,85.676a11.333,11.333,0,0,1,7.37-5.93,37.352,37.352,0,0,1,6.778-1.271,90.534,90.534,0,0,1,9.4-.423,82.064,82.064,0,0,1,11.776.678,17.543,17.543,0,0,1,6.608,2.033,4.017,4.017,0,0,1,2.118,3.473,11.062,11.062,0,0,1-1.525,5L446.325,373.883a10.871,10.871,0,0,1-2.966,3.558,14.312,14.312,0,0,1-4.659,2.2,39.343,39.343,0,0,1-6.777,1.271,88.054,88.054,0,0,1-9.319.423A81.752,81.752,0,0,1,410.744,380.66ZM254.357,330q-6.947,0-10.082-3.389t-1.609-10.674l38.292-191.121q1.355-7.455,6.015-10.759a18.123,18.123,0,0,1,10.759-3.3h52.694a146.316,146.316,0,0,1,30.159,2.711q12.708,2.711,21.349,8.218a36.508,36.508,0,0,1,13.046,13.893q4.405,8.386,4.406,19.908a62.65,62.65,0,0,1-2.8,18.892,56.331,56.331,0,0,1-8.132,16.266,61.255,61.255,0,0,1-12.877,13.046,64.446,64.446,0,0,1-16.859,9.065,45.924,45.924,0,0,1,13.724,4.744,36.637,36.637,0,0,1,17.706,21.1,49.92,49.92,0,0,1,2.457,16.18,68.824,68.824,0,0,1-2.2,16.859,67.588,67.588,0,0,1-6.947,17.028A73.993,73.993,0,0,1,391.09,304.5a77.02,77.02,0,0,1-18.383,13.216,104.126,104.126,0,0,1-24.822,8.98,144.041,144.041,0,0,1-32.7,3.3Zm35.92-34.057h31.514q12.03,0,20.247-3.389a40.26,40.26,0,0,0,13.555-8.81,34.1,34.1,0,0,0,7.879-12.453,41.82,41.82,0,0,0,2.542-14.317q0-10.845-8.048-17.113t-25.67-6.269h-29.65Zm18.977-94.883h25.076q11.013,0,18.3-3.473a34.888,34.888,0,0,0,18.723-21.094,41.583,41.583,0,0,0,2.118-12.708,19.119,19.119,0,0,0-1.694-8.3,16.39,16.39,0,0,0-5.083-6.1,24.461,24.461,0,0,0-8.556-3.9A52.961,52.961,0,0,0,345,144.131H320.775ZM193.361,315.768,76.621,251.213A5.828,5.828,0,0,1,74,248.5a12.464,12.464,0,0,1-.932-5.422,61.285,61.285,0,0,1,.593-7.625,56.387,56.387,0,0,1,1.949-9.065,43.182,43.182,0,0,1,3.389-8.218,10.3,10.3,0,0,1,4.914-4.913l141.307-63.877q4.066-1.864,5.846-.424t1.779,6.185a52.446,52.446,0,0,1-1.017,9.743,63.976,63.976,0,0,1-2.8,10.165,44.656,44.656,0,0,1-4.151,8.556,11.916,11.916,0,0,1-5.252,4.914L114.066,233.084l86.75,45.069a8.942,8.942,0,0,1,5.252,8.472q0,2.372-.339,5.761t-1.016,7.032a67.358,67.358,0,0,1-1.695,7.032,28.812,28.812,0,0,1-2.457,5.93,8.846,8.846,0,0,1-3.3,3.558,3.628,3.628,0,0,1-1.756.469A4.238,4.238,0,0,1,193.361,315.768Zm391.561-.169q-1.694-1.525-1.694-6.1a57.066,57.066,0,0,1,.932-9.743,58.363,58.363,0,0,1,2.711-10.165,41.663,41.663,0,0,1,4.236-8.556,12.364,12.364,0,0,1,5.337-4.914L702,231.559l-86.75-45.069q-5.423-2.711-5.422-8.472,0-2.372.339-5.761t1.016-7.032a59.556,59.556,0,0,1,1.779-7.116,29.21,29.21,0,0,1,2.542-5.93,10,10,0,0,1,3.219-3.558,3.754,3.754,0,0,1,3.982.085l116.74,64.724a6.963,6.963,0,0,1,2.626,2.8,11.9,11.9,0,0,1,.932,5.338,62.322,62.322,0,0,1-.593,7.539,56.1,56.1,0,0,1-1.948,9.149,39.923,39.923,0,0,1-3.473,8.218,10.679,10.679,0,0,1-5,4.913L590.683,315.259a9.428,9.428,0,0,1-3.756,1.025A2.885,2.885,0,0,1,584.922,315.6Z" transform="translate(16440.967 -3212.695)" fill="#fff"/>
  </g>
</svg>
